<?xml version="1.0" encoding="UTF-8"?>
<svg version="1.1" xmlns="http://www.w3.org/2000/svg" width="768" height="768">
<path d="M0 0 C253.44 0 506.88 0 768 0 C768 253.44 768 506.88 768 768 C514.56 768 261.12 768 0 768 C0 514.56 0 261.12 0 0 Z " fill="#FEFEFE" transform="translate(0,0)"/>
<path d="M0 0 C1.61479248 0.34490479 1.61479248 0.34490479 3.26220703 0.69677734 C41.38628707 9.13627681 76.64916658 27.67826312 107 52 C107.58120605 52.4655127 108.16241211 52.93102539 108.76123047 53.41064453 C122.81511342 64.7985221 135.99736984 77.62662188 147 92 C148.17369141 93.46566406 148.17369141 93.46566406 149.37109375 94.9609375 C165.68047212 115.43823249 178.63168109 138.58314582 188 163 C188.27005859 163.69335449 188.54011719 164.38670898 188.81835938 165.10107422 C196.78882393 185.77016163 201.12687218 207.08631321 204 229 C204.10530029 229.72203613 204.21060059 230.44407227 204.3190918 231.18798828 C205.33201752 238.79258445 205.19975417 246.46761023 205.1875 254.125 C205.18656342 254.87876923 205.18562683 255.63253845 205.18466187 256.40914917 C205.1106643 283.9701446 201.7894703 310.765646 193 337 C192.73380859 337.80904785 192.46761719 338.6180957 192.19335938 339.45166016 C180.38973041 374.90917537 161.69793606 406.97073038 136.35546875 434.421875 C134.42638235 436.53331285 132.5809408 438.67971582 130.75 440.875 C112.73852389 461.44159249 88.94717678 477.19963592 65 490 C64.36513672 490.34272949 63.73027344 490.68545898 63.07617188 491.03857422 C39.87180725 503.46778389 14.68943031 510.75604145 -11 516 C-12.02480469 516.21527344 -13.04960937 516.43054688 -14.10546875 516.65234375 C-43.61838015 522.48678655 -78.75650954 521.49546477 -108 515 C-109.10214844 514.75862305 -110.20429688 514.51724609 -111.33984375 514.26855469 C-179.29360329 498.93846421 -238.40951007 457.76749315 -275.79394531 398.91992188 C-293.00881423 371.51552326 -305.83591572 341.86211086 -312 310 C-312.24121582 308.77490723 -312.48243164 307.54981445 -312.73095703 306.28759766 C-325.60005989 238.73963382 -311.20985262 167.74357977 -272.78662109 110.62670898 C-268.14619827 103.84103362 -263.29360341 97.29404589 -258 91 C-257.58733887 90.49855469 -257.17467773 89.99710937 -256.74951172 89.48046875 C-245.44049807 75.74077547 -233.13054435 62.86015636 -219 52 C-218.02160156 51.21625 -217.04320312 50.4325 -216.03515625 49.625 C-195.2220775 33.05669389 -170.38858883 17.67854489 -144.80859375 9.88671875 C-142.57365909 9.18111351 -140.41661972 8.41146806 -138.23046875 7.57421875 C-94.8582472 -8.82712703 -45.03151412 -9.71142262 0 0 Z " fill="#FCFCFC" transform="translate(440,61)"/>
<path d="M0 0 C1.61479248 0.34490479 1.61479248 0.34490479 3.26220703 0.69677734 C41.38628707 9.13627681 76.64916658 27.67826312 107 52 C107.58120605 52.4655127 108.16241211 52.93102539 108.76123047 53.41064453 C122.81511342 64.7985221 135.99736984 77.62662188 147 92 C148.17369141 93.46566406 148.17369141 93.46566406 149.37109375 94.9609375 C165.68047212 115.43823249 178.63168109 138.58314582 188 163 C188.27005859 163.69335449 188.54011719 164.38670898 188.81835938 165.10107422 C196.78882393 185.77016163 201.12687218 207.08631321 204 229 C204.10530029 229.72203613 204.21060059 230.44407227 204.3190918 231.18798828 C205.33201752 238.79258445 205.19975417 246.46761023 205.1875 254.125 C205.18656342 254.87876923 205.18562683 255.63253845 205.18466187 256.40914917 C205.1106643 283.9701446 201.7894703 310.765646 193 337 C192.73380859 337.80904785 192.46761719 338.6180957 192.19335938 339.45166016 C180.38973041 374.90917537 161.69793606 406.97073038 136.35546875 434.421875 C134.42638235 436.53331285 132.5809408 438.67971582 130.75 440.875 C112.73852389 461.44159249 88.94717678 477.19963592 65 490 C64.36513672 490.34272949 63.73027344 490.68545898 63.07617188 491.03857422 C39.87180725 503.46778389 14.68943031 510.75604145 -11 516 C-12.02480469 516.21527344 -13.04960937 516.43054688 -14.10546875 516.65234375 C-43.61838015 522.48678655 -78.75650954 521.49546477 -108 515 C-109.10214844 514.75862305 -110.20429688 514.51724609 -111.33984375 514.26855469 C-179.29360329 498.93846421 -238.40951007 457.76749315 -275.79394531 398.91992188 C-293.00881423 371.51552326 -305.83591572 341.86211086 -312 310 C-312.24121582 308.77490723 -312.48243164 307.54981445 -312.73095703 306.28759766 C-325.60005989 238.73963382 -311.20985262 167.74357977 -272.78662109 110.62670898 C-268.14619827 103.84103362 -263.29360341 97.29404589 -258 91 C-257.58733887 90.49855469 -257.17467773 89.99710937 -256.74951172 89.48046875 C-245.44049807 75.74077547 -233.13054435 62.86015636 -219 52 C-218.02160156 51.21625 -217.04320312 50.4325 -216.03515625 49.625 C-195.2220775 33.05669389 -170.38858883 17.67854489 -144.80859375 9.88671875 C-142.57365909 9.18111351 -140.41661972 8.41146806 -138.23046875 7.57421875 C-94.8582472 -8.82712703 -45.03151412 -9.71142262 0 0 Z M-97 30 C-97.91136719 30.17692383 -98.82273437 30.35384766 -99.76171875 30.53613281 C-142.26283662 39.02170083 -180.73023808 58.99273871 -212 89 C-212.9266748 89.87785156 -212.9266748 89.87785156 -213.87207031 90.7734375 C-224.03266603 100.43778311 -232.87729231 110.57253271 -241 122 C-241.44005371 122.61133789 -241.88010742 123.22267578 -242.33349609 123.85253906 C-267.14258727 158.57574306 -283.66165544 202.81864617 -284.2734375 245.79296875 C-284.28592026 246.60928772 -284.29840302 247.42560669 -284.31126404 248.2666626 C-284.56313544 268.73735661 -283.57428576 287.95905074 -279 308 C-278.79713379 308.89138672 -278.59426758 309.78277344 -278.38525391 310.70117188 C-277.1590498 315.88462447 -275.68257495 320.94753551 -274 326 C-273.76087891 326.73089844 -273.52175781 327.46179688 -273.27539062 328.21484375 C-269.91248578 338.32949328 -265.75416345 347.99711284 -261.1875 357.625 C-260.70716309 358.63973389 -260.22682617 359.65446777 -259.73193359 360.69995117 C-259.2777002 361.63685791 -258.8234668 362.57376465 -258.35546875 363.5390625 C-257.74674927 364.79517334 -257.74674927 364.79517334 -257.12573242 366.07666016 C-256.14396151 368.15552806 -256.14396151 368.15552806 -254 369 C-254 318.84 -254 268.68 -254 217 C-228 224 -228 224 -223 226 C-222.01 226 -221.02 226 -220 226 C-220 213.46 -220 200.92 -220 188 C-214.06 189.98 -208.12 191.96 -202 194 C-199.40125 194.7425 -196.8025 195.485 -194.125 196.25 C-165.86889268 204.36412565 -132.71070147 214.90022789 -109 233 C-107.9765625 234.9296875 -107.9765625 234.9296875 -107.625 236.875 C-107.43164062 237.90753906 -107.43164062 237.90753906 -107.234375 238.9609375 C-106.92429827 241.65860502 -106.86446427 244.28928534 -107 247 C-109.1015625 248.23046875 -109.1015625 248.23046875 -112 249 C-114.37361742 247.8883454 -116.24091791 246.78379448 -118.375 245.3125 C-139.67673065 231.65534204 -163.88627088 222.9608144 -187.75 214.9375 C-188.92336914 214.54288574 -190.09673828 214.14827148 -191.30566406 213.74169922 C-192.39588867 213.38221191 -193.48611328 213.02272461 -194.609375 212.65234375 C-196.0629541 212.17269165 -196.0629541 212.17269165 -197.54589844 211.68334961 C-200.0570975 210.86587658 -200.0570975 210.86587658 -203 211 C-203 260.83 -203 310.66 -203 362 C-195.45774897 365.36041127 -195.45774897 365.36041127 -187.8046875 368.2265625 C-186.68843994 368.61320068 -185.57219238 368.99983887 -184.42211914 369.39819336 C-183.25156982 369.80303955 -182.08102051 370.20788574 -180.875 370.625 C-153.0014367 380.45274428 -126.02270651 392.5468576 -102.3125 410.3984375 C-100.011485 412.1518209 -100.011485 412.1518209 -97 413 C-96.0010451 371.31754418 -95.91887789 329.69676428 -96 288 C-69.6 288 -43.2 288 -16 288 C-16.020625 296.559375 -16.04125 305.11875 -16.0625 313.9375 C-16.08944143 337.37982555 -15.88629834 360.81108742 -15.5 384.25 C-15.48804218 384.97589703 -15.47608437 385.70179405 -15.46376419 386.44968796 C-15.31724318 395.29993663 -15.16278807 404.15003462 -15 413 C-12.34968448 411.69756155 -9.92937461 410.33981277 -7.515625 408.63671875 C18.89936583 390.32055969 47.61796117 378.0189632 77.7512207 367.21337891 C82.19712319 365.55288929 86.59357104 363.76257158 91 362 C91 312.17 91 262.34 91 211 C85.85580053 211.73488564 81.934729 212.52377112 77.125 214.15234375 C76.48701981 214.36774307 75.84903961 214.5831424 75.19172668 214.80506897 C73.12476649 215.50731778 71.06201815 216.22087767 69 216.9375 C68.28991791 217.18298584 67.57983582 217.42847168 66.84823608 217.68139648 C33.87592042 229.06835571 33.87592042 229.06835571 4.15625 246.88671875 C1 249 1 249 -1.00976562 248.69458008 C-1.66654297 248.46536865 -2.32332031 248.23615723 -3 248 C-3.99 247.67 -4.98 247.34 -6 247 C-5.55630216 240.80563016 -5.11337015 235.02857444 -0.46875 230.5703125 C2.35089794 228.83246018 5.13896215 227.30196843 8.12890625 225.89013672 C9.94677652 225.02532004 11.72467108 224.07799392 13.5 223.12890625 C17.60076012 220.94172319 21.78399967 218.95423414 26 217 C27.29091553 216.39913574 27.29091553 216.39913574 28.60791016 215.78613281 C52.60349702 204.77851998 77.9996487 196.79050933 103.41894531 189.75952148 C105.95644586 189.09533039 105.95644586 189.09533039 108 188 C108 200.54 108 213.08 108 226 C119.44449521 223.45677884 130.71052736 220.16105234 142 217 C142 267.49 142 317.98 142 370 C171.5856445 330.552474 176.77877843 270.06185892 170.5 222.875 C165.00832505 185.5593699 149.6590864 149.07969359 127 119 C126.54512207 118.38817871 126.09024414 117.77635742 125.62158203 117.14599609 C116.34786028 104.72117415 106.00078303 92.85937936 94 83 C93.03835938 82.16210938 92.07671875 81.32421875 91.0859375 80.4609375 C73.37205361 65.04643905 53.44668896 53.42435956 32 44 C31.27232422 43.67902344 30.54464844 43.35804687 29.79492188 43.02734375 C-8.6833256 26.35227368 -55.81536702 21.92243731 -97 30 Z " fill="#030303" transform="translate(440,61)"/>
<path d="M0 0 C0.1157509 13.62112554 0.20464316 27.24213445 0.25906086 40.86365128 C0.28517613 47.18841143 0.32061049 53.51283559 0.37719727 59.83740234 C0.43144656 65.93876201 0.46140598 72.03979812 0.47438622 78.14138031 C0.48363871 80.47147467 0.50170635 82.80155093 0.52865028 85.13150787 C0.56484515 88.3904728 0.56994917 91.64809362 0.56762695 94.90722656 C0.58560333 95.874673 0.60357971 96.84211945 0.62210083 97.83888245 C0.57120856 104.42121029 0.57120856 104.42121029 -2.47297668 107.50579834 C-3.72385323 108.24542816 -3.72385323 108.24542816 -5 109 C-6.59561887 112.19123774 -6.3799142 115.52745091 -6 119 C-4.36312815 122.58552881 -3.31027417 123.79315055 0 126 C4.99273591 126.46229036 7.99990685 126.08578614 12 123 C14.66539031 119.00191454 14.84149704 115.70248347 14 111 C11.72872666 107.97590636 11.72872666 107.97590636 9 106 C8 105 8 105 7.87695217 103.23712826 C7.87787396 102.46374394 7.87879576 101.69035963 7.87974548 100.89353943 C7.87768349 99.56624817 7.87768349 99.56624817 7.87557983 98.21214294 C7.88097275 96.74479454 7.88097275 96.74479454 7.88647461 95.24780273 C7.88632858 94.2235318 7.88618256 93.19926086 7.8860321 92.14395142 C7.88673172 88.74047771 7.89452637 85.33705796 7.90234375 81.93359375 C7.90420776 79.58089732 7.90563174 77.2282005 7.90663147 74.87550354 C7.91045801 68.66943295 7.92028945 62.4633856 7.93133545 56.25732422 C7.94154666 49.93001622 7.94612846 43.60270448 7.95117188 37.27539062 C7.9619116 24.85025018 7.97898964 12.42512702 8 0 C10.31 0.33 12.62 0.66 15 1 C15.4021875 2.25876953 15.4021875 2.25876953 15.8125 3.54296875 C21.77068055 21.82909524 28.77372853 39.61443997 37 57 C37.38913574 57.8235498 37.77827148 58.64709961 38.17919922 59.49560547 C47.17303768 78.36387534 57.91301496 95.96401321 70 113 C68.55989483 115.92618004 67.03231004 118.79082281 65.4609375 121.6484375 C53.38847149 143.9203272 45.58915991 165.87588061 42 191 C29.46 191 16.92 191 4 191 C4 172.85 4 154.7 4 136 C1.69 136 -0.62 136 -3 136 C-9.3844645 133.28933311 -13.18492258 129.2166293 -16 123 C-17.61407648 118.15777055 -18.02965108 112.74743531 -16.2109375 107.89453125 C-14.86985392 105.49388927 -13.48232246 103.41300077 -11.38456726 101.616745 C-9.47922301 99.39189405 -9.63749359 97.97168208 -9.65942383 95.06958008 C-9.65965042 94.06876907 -9.65987701 93.06795807 -9.66011047 92.03681946 C-9.67559433 90.95861435 -9.69107819 89.88040924 -9.70703125 88.76953125 C-9.71339851 87.11119514 -9.71339851 87.11119514 -9.71989441 85.4193573 C-9.73670563 81.88349188 -9.77436315 78.34819355 -9.8125 74.8125 C-9.82754364 72.41732593 -9.8412326 70.02214294 -9.85351562 67.62695312 C-9.88661715 61.75110815 -9.93684107 55.87559458 -10 50 C-10.3280513 50.73905579 -10.6561026 51.47811157 -10.99409485 52.23956299 C-20.00470693 72.49906297 -29.86999472 92.13527512 -42.5859375 110.35546875 C-44.21833768 112.78099037 -44.21833768 112.78099037 -43.73388672 114.85717773 C-42.88788868 117.32734567 -41.8333274 119.59044287 -40.671875 121.9296875 C-40.20410645 122.88246582 -39.73633789 123.83524414 -39.25439453 124.81689453 C-38.75794434 125.82606934 -38.26149414 126.83524414 -37.75 127.875 C-30.33203705 143.23619658 -25.61980444 158.34826061 -22 175 C-21.80583496 175.87591797 -21.61166992 176.75183594 -21.41162109 177.65429688 C-21.22809082 178.51603516 -21.04456055 179.37777344 -20.85546875 180.265625 C-20.69071045 181.03165039 -20.52595215 181.79767578 -20.35620117 182.58691406 C-20 185 -20 185 -20 191 C-24.62 191 -29.24 191 -34 191 C-34.15855469 189.99324219 -34.31710937 188.98648438 -34.48046875 187.94921875 C-38.36327056 164.16240117 -45.20313386 142.24952584 -57.58251953 121.44555664 C-58.27063721 120.2659436 -58.27063721 120.2659436 -58.97265625 119.0625 C-59.38781494 118.37285156 -59.80297363 117.68320313 -60.23071289 116.97265625 C-61.20226025 114.48135105 -60.96133504 113.47083944 -60 111 C-58.92773438 109.03979492 -58.92773438 109.03979492 -57.59375 106.98046875 C-57.10189209 106.2136377 -56.61003418 105.44680664 -56.10327148 104.65673828 C-55.3096521 103.43446533 -55.3096521 103.43446533 -54.5 102.1875 C-53.39603565 100.46033787 -52.29318087 98.73246605 -51.19140625 97.00390625 C-50.64629395 96.15070801 -50.10118164 95.29750977 -49.53955078 94.41845703 C-36.48989988 73.91895785 -26.10990658 52.51968906 -17 30 C-16.63326172 29.09958984 -16.26652344 28.19917969 -15.88867188 27.27148438 C-12.63150353 19.24290433 -9.52723192 11.34490854 -7.60546875 2.87109375 C-7.40566406 2.25363281 -7.20585937 1.63617188 -7 1 C-4.53721199 -0.231394 -2.7204945 -0.07159196 0 0 Z " fill="#030303" transform="translate(380,117)"/>
<path d="M0 0 C1.00933594 -0.00845947 1.00933594 -0.00845947 2.0390625 -0.01708984 C11.3835206 0.11777391 21.24686436 3.62186436 27.9375 10.3125 C30.11083572 13.55353432 32.06666896 16.88904378 33.9375 20.3125 C34.30488281 20.951875 34.67226563 21.59125 35.05078125 22.25 C39.00321374 31.44332316 38.19620211 45.02847955 34.9375 54.3125 C30.03833924 65.24349657 22.95941715 70.90373314 11.9375 75.3125 C3.4906225 78.07170047 -6.45619931 77.01647923 -14.52734375 73.640625 C-23.23091881 69.08097089 -29.57000523 63.01353259 -32.8125 53.6875 C-36.5276219 41.72135155 -36.1325943 29.84359943 -31.0625 18.3125 C-26.45228819 10.52766133 -19.31436427 3.70601901 -10.59765625 0.77734375 C-7.07108019 0.13071424 -3.57462561 0.02859047 0 0 Z " fill="#050505" transform="translate(485.0625,610.6875)"/>
<path d="M0 0 C-31.8201512 31.98910775 -73.67231605 53.64914657 -118 62 C-118.99 62 -119.98 62 -121 62 C-120.88102901 56.8769793 -120.75673845 51.75412432 -120.62768555 46.63134766 C-120.5845842 44.89147375 -120.54289363 43.15156427 -120.50268555 41.41162109 C-120.44437679 38.89930535 -120.38086278 36.38716466 -120.31640625 33.875 C-120.29969376 33.10696045 -120.28298126 32.3389209 -120.26576233 31.54760742 C-119.90047198 17.99174789 -119.90047198 17.99174789 -116.99609375 14.79296875 C-115.72958984 13.99826172 -115.72958984 13.99826172 -114.4375 13.1875 C-113.61121094 12.64480469 -112.78492188 12.10210937 -111.93359375 11.54296875 C-104.51778192 7.64250847 -97.3505834 6.14647234 -89.125 4.9375 C-87.98587158 4.76758545 -86.84674316 4.5976709 -85.6730957 4.42260742 C-57.37141135 0.37061701 -28.55603434 -0.29919012 0 0 Z " fill="#FBFBFB" transform="translate(544,482)"/>
<path d="M0 0 C31.15561529 -0.74921013 63.28356124 0.4728532 94 6 C95.18078125 6.20109375 96.3615625 6.4021875 97.578125 6.609375 C105.07817707 8.15461186 112.49935063 11.49935063 118 17 C119.03472986 23.53795979 119.30966571 30.07954333 119.5625 36.6875 C119.6049585 37.74517578 119.64741699 38.80285156 119.69116211 39.89257812 C119.97237288 47.26629791 120.12971434 54.62069506 120 62 C78.75258331 55.27436649 41.9320189 36.86597711 10 10.25 C9.45939941 9.80197021 8.91879883 9.35394043 8.36181641 8.89233398 C5.1664564 6.18186709 2.50902467 3.35340797 0 0 Z " fill="#FBFBFB" transform="translate(225,482)"/>
<path d="M0 0 C0 51.48 0 102.96 0 156 C-6.93 156.33 -13.86 156.66 -21 157 C-27.31079794 157.65185608 -33.58953787 158.35147057 -39.875 159.1875 C-40.69930511 159.29471375 -41.52361023 159.40192749 -42.37289429 159.51239014 C-54.085177 161.04358918 -65.71697295 162.8730855 -77.3125 165.125 C-79.17720947 165.48694458 -79.17720947 165.48694458 -81.07958984 165.85620117 C-87.18960358 167.09095246 -93.10120395 168.51855014 -99.00073242 170.54248047 C-101 171 -101 171 -104 170 C-79.69093741 156.62541159 -54.01798821 145.99188036 -27.4375 138 C-26.41088257 137.68808716 -26.41088257 137.68808716 -25.36352539 137.36987305 C-21.65530026 136.29892074 -18.94878743 136 -15 136 C-15 92.77 -15 49.54 -15 5 C-3.75 0 -3.75 0 0 0 Z " fill="#FAFAFA" transform="translate(563,301)"/>
<path d="M0 0 C11 3 11 3 15 5 C15.33 47.9 15.66 90.8 16 135 C25.57 137.97 35.14 140.94 45 144 C49.8346038 145.727143 54.57082167 147.44533176 59.3125 149.375 C60.44002686 149.82560791 61.56755371 150.27621582 62.72924805 150.74047852 C76.74820493 156.41259967 90.97746406 162.25832691 104 170 C100.21933165 171.26022278 98.85512715 170.53447294 95.0625 169.375 C84.0175455 166.19012803 72.63395481 164.481042 61.31591797 162.56323242 C59.20413573 162.20453108 57.09360592 161.83831691 54.98486328 161.4621582 C47.10452901 160.08083146 39.21123467 159.20833676 31.25 158.4375 C30.00734375 158.31181641 28.7646875 158.18613281 27.484375 158.05664062 C18.31936344 157.15244785 9.20475041 156.5752969 0 156 C0 104.52 0 53.04 0 0 Z " fill="#FAFAFA" transform="translate(205,301)"/>
<path d="M0 0 C0 59.4 0 118.8 0 180 C-10.125 180 -10.125 180 -14 179 C-16.65003576 159.8046708 -17.41992959 140.95441542 -17.30418181 121.59807801 C-17.28501044 117.83059611 -17.28363361 114.06310117 -17.28010559 110.295578 C-17.27090078 103.20967317 -17.24644963 96.1239126 -17.21605712 89.03807038 C-17.1821454 80.95055703 -17.16593618 72.86303559 -17.15097082 64.77546847 C-17.1198849 48.18356215 -17.06735825 31.59179967 -17 15 C-17.99 14.67 -18.98 14.34 -20 14 C-19.11957031 13.32453125 -18.23914063 12.6490625 -17.33203125 11.953125 C-16.15883404 11.05210954 -14.98565808 10.1510664 -13.8125 9.25 C-13.23435547 8.8065625 -12.65621094 8.363125 -12.06054688 7.90625 C-11.49013672 7.46796875 -10.91972656 7.0296875 -10.33203125 6.578125 C-9.76822754 6.14564453 -9.20442383 5.71316406 -8.62353516 5.26757812 C-7.12561229 4.09807203 -5.66064843 2.88667568 -4.19921875 1.671875 C-2 0 -2 0 0 0 Z " fill="#F5F5F5" transform="translate(377,367)"/>
<path d="M0 0 C0.81389694 -0.00408875 1.62779388 -0.00817749 2.46635437 -0.01239014 C5.13711613 -0.01837133 7.80536504 0.01842718 10.47583008 0.05664062 C12.33953745 0.06276147 14.20325399 0.0665094 16.06697083 0.06799316 C19.9633005 0.07717676 23.8587982 0.10594293 27.75488281 0.15039062 C32.74847595 0.20707229 37.74141669 0.2288279 42.73530102 0.23775482 C46.57947808 0.2460666 50.42352355 0.26570235 54.26763344 0.289505 C56.10922511 0.30089449 57.9508293 0.31041715 59.79244041 0.31803894 C62.36315522 0.33178806 64.93335611 0.35905956 67.50390625 0.390625 C68.26398987 0.39286072 69.02407349 0.39509644 69.80718994 0.3973999 C73.51595504 0.45772016 76.48524306 0.51270682 79.55786133 2.71289062 C82.36344645 6.50422188 83.94585286 9.07371553 83.55786133 13.83789062 C82.70656781 18.27493565 80.68696566 21.26917883 76.91403198 23.82754517 C73.53297464 25.09799803 70.23492377 25.00776504 66.67163086 25.00341797 C65.88089172 25.01013519 65.09015259 25.01685242 64.27545166 25.02377319 C61.66379496 25.04275671 59.05239521 25.04667755 56.44067383 25.04882812 C54.62230321 25.05525583 52.80393363 25.06198418 50.98556519 25.06900024 C47.17419029 25.0809739 43.36290605 25.08468098 39.55151367 25.08349609 C34.67337493 25.08329291 29.79581877 25.11059439 24.91781807 25.14504051 C21.1619501 25.16730433 17.40622245 25.17133379 13.65029526 25.17027664 C11.85219185 25.1726334 10.05408461 25.1814612 8.2560463 25.19694138 C5.73791235 25.21659111 3.2210361 25.21076791 0.70288086 25.19873047 C-0.40547623 25.21558899 -0.40547623 25.21558899 -1.53622437 25.23278809 C-6.63526179 25.17101169 -9.52750122 23.94095147 -13.44213867 20.71289062 C-15.59083898 17.48984017 -15.84274065 16.17627024 -16.00463867 12.40039062 C-16.06780273 11.47613281 -16.1309668 10.551875 -16.19604492 9.59960938 C-14.17212038 1.84997084 -7.18958689 -0.17572817 0 0 Z " fill="#040404" transform="translate(350.442138671875,316.287109375)"/>
<path d="M0 0 C5.28 0 10.56 0 16 0 C16.33 7.92 16.66 15.84 17 24 C19.97 22.02 22.94 20.04 26 18 C32.38650563 16.56013328 38.73849792 17.46337533 44.3828125 20.80078125 C48.81582889 24.08806635 50.61374145 27.77384245 52 33 C52.25960321 36.18829496 52.23342692 39.35764984 52.1953125 42.5546875 C52.1924826 43.45623566 52.18965271 44.35778381 52.18673706 45.28665161 C52.17559439 48.14957276 52.1505008 51.01217434 52.125 53.875 C52.11496255 55.82291213 52.10583804 57.77082919 52.09765625 59.71875 C52.07567443 64.4792887 52.0411855 69.23959027 52 74 C49.52076199 74.02685095 47.0418116 74.04676547 44.5625 74.0625 C43.85544922 74.07087891 43.14839844 74.07925781 42.41992188 74.08789062 C40.61306441 74.09653588 38.80612397 74.05220011 37 74 C34.93600263 71.93600263 35.81451916 67.542561 35.7890625 64.6953125 C35.76099355 62.98045921 35.73232909 61.26561558 35.703125 59.55078125 C35.66183712 56.83610302 35.62496707 54.12160511 35.59863281 51.40673828 C35.57106751 48.794213 35.52519459 46.18251905 35.4765625 43.5703125 C35.47330963 42.7577298 35.47005676 41.94514709 35.46670532 41.10794067 C35.50493612 36.90150565 35.50493612 36.90150565 33.59896851 33.32418823 C31.15720175 31.30203533 29.92838196 30.9918923 26.6875 30.625 C22.85793506 30.66944541 22.85793506 30.66944541 20.125 33.375 C16.70708362 37.597132 16.79668796 40.81141454 16.68359375 46.0703125 C16.66281265 46.86654022 16.64203156 47.66276794 16.62062073 48.48312378 C16.55515851 51.03032685 16.49625585 53.57763425 16.4375 56.125 C16.3943116 57.85027127 16.35069721 59.57553193 16.30664062 61.30078125 C16.19867755 65.53374872 16.09957993 69.76679371 16 74 C10.72 74 5.44 74 0 74 C0 49.58 0 25.16 0 0 Z " fill="#0E0F0F" transform="translate(191,612)"/>
<path d="M0 0 C7.71894745 4.74409955 11.11283222 10.74474667 13.92578125 19.18359375 C13.92578125 22.48359375 13.92578125 25.78359375 13.92578125 29.18359375 C0.72578125 29.18359375 -12.47421875 29.18359375 -26.07421875 29.18359375 C-23.41054971 36.89814404 -23.41054971 36.89814404 -18.07421875 41.18359375 C-13.32343595 42.05378664 -8.64309259 41.97948192 -4.51171875 39.30859375 C-2.03433249 37.42075042 -2.03433249 37.42075042 -1.07421875 35.18359375 C3.21578125 35.18359375 7.50578125 35.18359375 11.92578125 35.18359375 C10.86124807 41.57079283 9.93276513 44.9709075 4.6484375 48.859375 C0.17480248 51.67810143 -3.69579796 53.95949288 -9.07421875 54.18359375 C-9.8115625 54.24417969 -10.54890625 54.30476562 -11.30859375 54.3671875 C-18.76310943 54.74917355 -25.06029981 53.14606547 -31.1171875 48.67578125 C-36.77400448 43.48936056 -40.51236065 36.1265226 -41.3828125 28.46875 C-41.7316494 19.74782738 -40.19039658 13.3399652 -35.07421875 6.18359375 C-25.74969444 -3.32376437 -12.09847065 -6.39206219 0 0 Z " fill="#080808" transform="translate(292.07421875,632.81640625)"/>
<path d="M0 0 C7.72784727 8.07911305 7.75 14.20185644 7.75 25.875 C-4.79 25.875 -17.33 25.875 -30.25 25.875 C-28.97914574 33.31946039 -28.97914574 33.31946039 -26.25 36.375 C-21.90102544 38.54948728 -18.02301661 38.53442993 -13.25 37.875 C-9.56376989 36.26227433 -8.49645 35.244675 -6.25 31.875 C-3.2109375 31.58203125 -3.2109375 31.58203125 0.375 31.6875 C1.56351563 31.71457031 2.75203125 31.74164062 3.9765625 31.76953125 C4.89179687 31.80433594 5.80703125 31.83914063 6.75 31.875 C6.02577054 38.39306512 3.44812812 41.50313077 -1.25 45.875 C-8.19766516 51.01215073 -15.85363047 51.66392063 -24.25 50.875 C-31.39336291 49.15395756 -36.88896971 45.82502272 -41.25 39.875 C-45.73498122 31.65709234 -47.62097294 23.71906965 -45.75390625 14.3984375 C-43.25396787 6.17830113 -38.80871883 0.07246642 -31.25 -4.125 C-20.00114777 -8.75688033 -9.76094494 -6.38215631 0 0 Z " fill="#080808" transform="translate(636.25,636.125)"/>
<path d="M0 0 C4.87377052 2.80969233 8.49454076 6.49769404 10.18431091 12.00775146 C10.60374963 14.13269086 10.71412417 16.04379199 10.70727539 18.20800781 C10.70719986 19.00853577 10.70712433 19.80906372 10.70704651 20.6338501 C10.70188522 21.48815613 10.69672394 22.34246216 10.69140625 23.22265625 C10.6899913 24.10483826 10.68857635 24.98702026 10.68711853 25.89593506 C10.68153001 28.7080019 10.66897961 31.51998855 10.65625 34.33203125 C10.65123352 36.24088427 10.64667087 38.14973853 10.64257812 40.05859375 C10.63156434 44.73310372 10.61430758 49.4075539 10.59375 54.08203125 C5.64375 54.08203125 0.69375 54.08203125 -4.40625 54.08203125 C-4.42083252 53.01766846 -4.43541504 51.95330566 -4.45043945 50.85668945 C-4.5085478 46.89606656 -4.58577945 42.93600477 -4.66870117 38.97583008 C-4.70189169 37.26400887 -4.72994189 35.55207977 -4.75268555 33.84008789 C-4.78634032 31.37469646 -4.83865974 28.91028844 -4.89453125 26.4453125 C-4.90092117 25.68366287 -4.9073111 24.92201324 -4.91389465 24.13728333 C-5.03728677 19.64667033 -5.59459818 16.64076932 -8.40625 13.08203125 C-10.51508908 12.19749336 -10.51508908 12.19749336 -12.84375 12.14453125 C-13.98650391 12.03818359 -13.98650391 12.03818359 -15.15234375 11.9296875 C-17.91003797 12.11608278 -19.18608775 12.39981385 -21.40625 14.08203125 C-23.98262174 19.10873069 -24.86520445 23.32221284 -24.91796875 28.984375 C-24.93591995 29.70693985 -24.95387115 30.4295047 -24.97236633 31.17396545 C-25.02605006 33.45576336 -25.06022763 35.73735731 -25.09375 38.01953125 C-25.12696036 39.5775021 -25.16145341 41.13544616 -25.19726562 42.69335938 C-25.28414088 46.4896058 -25.34456089 50.2849601 -25.40625 54.08203125 C-30.35625 54.08203125 -35.30625 54.08203125 -40.40625 54.08203125 C-40.40625 36.26203125 -40.40625 18.44203125 -40.40625 0.08203125 C-35.78625 0.08203125 -31.16625 0.08203125 -26.40625 0.08203125 C-26.40625 2.39203125 -26.40625 4.70203125 -26.40625 7.08203125 C-25.74625 7.08203125 -25.08625 7.08203125 -24.40625 7.08203125 C-24.14585937 6.4684375 -23.88546875 5.85484375 -23.6171875 5.22265625 C-19.30356717 -2.40271129 -7.34692918 -2.80280577 0 0 Z " fill="#040505" transform="translate(571.40625,630.91796875)"/>
<path d="M0 0 C20.13 0 40.26 0 61 0 C61 4.62 61 9.24 61 14 C53.74 14 46.48 14 39 14 C39 33.47 39 52.94 39 73 C33.72 73 28.44 73 23 73 C23 53.53 23 34.06 23 14 C15.41 14 7.82 14 0 14 C0 9.38 0 4.76 0 0 Z " fill="#060606" transform="translate(123,612)"/>
<path d="M0 0 C3.30418919 2.09265315 4.93799387 3.88223891 6.9921875 7.26171875 C7.8046875 11.13671875 7.8046875 11.13671875 7.9921875 14.26171875 C5.72297214 14.39661266 3.4514808 14.4936587 1.1796875 14.57421875 C-0.71716797 14.66123047 -0.71716797 14.66123047 -2.65234375 14.75 C-3.75964844 14.58886719 -4.86695313 14.42773438 -6.0078125 14.26171875 C-7.76953125 11.8046875 -7.76953125 11.8046875 -9.0078125 9.26171875 C-11.80938698 8.32786059 -13.66229053 8.0981728 -16.5703125 8.07421875 C-17.35535156 8.06003906 -18.14039063 8.04585937 -18.94921875 8.03125 C-21.232167 8.07004366 -21.232167 8.07004366 -23.0078125 10.26171875 C-22.68739853 12.86452443 -22.68739853 12.86452443 -22.0078125 15.26171875 C-17.00806763 17.01162945 -12.11731792 18.48665401 -6.9453125 19.63671875 C-0.46006194 21.22494338 4.64246584 23.47142428 8.9921875 28.63671875 C10.92595962 33.71287057 10.35567309 37.90085952 8.4921875 42.88671875 C5.53169026 49.02739677 0.78673132 51.15444667 -5.3203125 53.57421875 C-15.36025036 55.44607157 -25.23053389 54.61291135 -33.9453125 48.94921875 C-37.0610267 46.50220736 -38.67117513 44.03575369 -40.0078125 40.26171875 C-40.0489821 38.59556064 -40.05565314 36.92769866 -40.0078125 35.26171875 C-27.26982841 34.34213166 -27.26982841 34.34213166 -24.22265625 36.5625 C-23.1953125 38.19921875 -23.1953125 38.19921875 -22.0078125 41.26171875 C-20.27808136 42.99144989 -17.98264287 42.43379992 -15.6328125 42.44921875 C-14.65570313 42.46339844 -13.67859375 42.47757813 -12.671875 42.4921875 C-9.77994228 42.45713858 -9.77994228 42.45713858 -7.0078125 40.26171875 C-6.7575968 37.17806004 -6.7575968 37.17806004 -7.0078125 34.26171875 C-11.82013881 32.28017262 -16.4027688 30.92674511 -21.5078125 29.88671875 C-28.29196485 28.37563145 -33.35265567 26.24877019 -38.0078125 21.01171875 C-39.45958413 17.01934676 -39.67477453 13.45616887 -39.0078125 9.26171875 C-36.32725902 3.99989155 -32.83278976 0.40653461 -27.328125 -1.82421875 C-18.65717082 -4.21128143 -8.15899708 -3.91467032 0 0 Z " fill="#070707" transform="translate(434.0078125,632.73828125)"/>
<path d="M0 0 C4.39514125 3.43967576 6.16142917 6.87135504 8 12 C8 12.66 8 13.32 8 14 C3.05 14 -1.9 14 -7 14 C-7.495 11.525 -7.495 11.525 -8 9 C-10.92075397 8.16169704 -13.52664783 7.86472639 -16.5625 7.875 C-17.32691406 7.87242187 -18.09132813 7.86984375 -18.87890625 7.8671875 C-21.18998495 7.92092616 -21.18998495 7.92092616 -24 9 C-23.51973152 11.94818931 -23.51973152 11.94818931 -22 15 C-16.47985076 17.81954391 -10.80334621 19.13356102 -4.78515625 20.4609375 C0.33452257 21.65520292 4.29879732 23.06414867 7.8125 27.0625 C10.00009251 32.47391306 9.73664772 37.83098173 7.875 43.3125 C4.20247234 48.57645631 0.16150562 51.40857112 -6 53 C-9.29585218 53.32637204 -12.56476224 53.37008137 -15.875 53.375 C-16.73480469 53.39949219 -17.59460938 53.42398438 -18.48046875 53.44921875 C-25.08470007 53.47928354 -30.57045919 52.1733675 -35.52636719 47.58764648 C-38.92826417 43.74049759 -41 40.15388136 -41 35 C-36.05 35 -31.1 35 -26 35 C-25.34 36.65 -24.68 38.3 -24 40 C-20.64802157 42.23465229 -19.42208754 42.27108649 -15.5 42.25 C-14.5409375 42.25515625 -13.581875 42.2603125 -12.59375 42.265625 C-9.76377103 42.17982609 -9.76377103 42.17982609 -7 40 C-6.74969023 37.41619823 -6.74969023 37.41619823 -7 35 C-11.93667175 32.54413047 -16.66881282 30.75500517 -22.0625 29.5625 C-28.54539653 28.03273488 -33.47471887 25.76202623 -38 20.8125 C-39.53017169 16.50889212 -39.65046551 12.50989421 -39 8 C-36.18733028 2.2704876 -32.8221978 0.14088847 -27.0625 -2.1875 C-18.46989137 -4.40616043 -7.93596313 -4.2133365 0 0 Z " fill="#060606" transform="translate(352,633)"/>
<path d="M0 0 C5.69684722 3.19470256 9.26616048 7.90005316 11.3046875 14.05078125 C13.52773892 24.22551659 11.40254176 33.63093319 5.9375 42.375 C0.63895803 47.36186303 -4.28617086 47.92341541 -11.34765625 47.72265625 C-16.64443553 47.07421972 -19.52633104 44.24188729 -22.9375 40.4375 C-27.1568367 34.69451393 -27.55171664 29.99080795 -27.5625 23.0625 C-27.58699219 22.24587891 -27.61148437 21.42925781 -27.63671875 20.58789062 C-27.66967608 13.69431548 -26.07406642 8.29480902 -21.15234375 3.31640625 C-20.48332031 2.86136719 -19.81429688 2.40632812 -19.125 1.9375 C-18.45339844 1.46441406 -17.78179687 0.99132812 -17.08984375 0.50390625 C-11.62323819 -2.74013688 -5.63980502 -2.57422919 0 0 Z " fill="#FAFAFA" transform="translate(494.1875,625.625)"/>
<path d="M0 0 C20.75054608 4.95535429 52.58677359 14.58677359 68 30 C68.07258946 32.18639453 68.08373783 34.37500389 68.0625 36.5625 C68.05347656 37.76003906 68.04445313 38.95757812 68.03515625 40.19140625 C68.02355469 41.11824219 68.01195312 42.04507813 68 43 C64.33995595 41.61169315 60.95480987 39.96737765 57.51953125 38.09375 C42.95162385 30.26815068 28.40996137 23.67618974 12.82763672 18.04199219 C8.51399738 16.4524038 4.25952306 14.72884224 0 13 C0 8.71 0 4.42 0 0 Z " fill="#070707" transform="translate(257,333)"/>
<path d="M0 0 C0 4.29 0 8.58 0 13 C-1.78019531 13.64324219 -3.56039062 14.28648437 -5.39453125 14.94921875 C-18.41749033 19.72875497 -31.19238534 24.77139742 -43.6875 30.8125 C-44.77716064 31.3386792 -45.86682129 31.8648584 -46.98950195 32.40698242 C-52.86648425 35.3014794 -58.50920185 38.4077668 -64.05004883 41.9050293 C-66 43 -66 43 -68 43 C-68.27163081 40.96578707 -68.46479818 38.92100609 -68.625 36.875 C-68.74101562 35.73804688 -68.85703125 34.60109375 -68.9765625 33.4296875 C-67.81944452 29.36588917 -67.06562732 29.02098477 -63.56640625 26.90234375 C-61.72118697 25.91548734 -59.86547618 24.94800758 -58 24 C-56.41110998 23.11101635 -54.82381183 22.21918032 -53.23828125 21.32421875 C-40.53289524 14.45550582 -27.5473781 8.97484683 -14 4 C-13.00387695 3.62343262 -12.00775391 3.24686523 -10.98144531 2.85888672 C-10.00014648 2.49166504 -9.01884766 2.12444336 -8.0078125 1.74609375 C-7.11980957 1.41150146 -6.23180664 1.07690918 -5.31689453 0.73217773 C-3 0 -3 0 0 0 Z " fill="#070707" transform="translate(511,333)"/>
<path d="M0 0 C52.68181818 14.68181818 52.68181818 14.68181818 68 30 C68.07258946 32.18639453 68.08373783 34.37500389 68.0625 36.5625 C68.05347656 37.76003906 68.04445313 38.95757812 68.03515625 40.19140625 C68.02355469 41.11824219 68.01195312 42.04507813 68 43 C67.08863281 42.53851563 66.17726563 42.07703125 65.23828125 41.6015625 C61.65280698 39.79233068 58.05811871 38.00211412 54.45947266 36.21923828 C52.82765687 35.41029565 51.19710651 34.59879504 49.56787109 33.78466797 C37.36432651 27.70830461 25.01371432 22.55118959 12.1953125 17.91015625 C8.05861225 16.4120766 4.02021521 14.78614018 0 13 C0 8.71 0 4.42 0 0 Z " fill="#070707" transform="translate(257,362)"/>
<path d="M0 0 C0 4.29 0 8.58 0 13 C-1.78019531 13.64324219 -3.56039062 14.28648437 -5.39453125 14.94921875 C-18.41749033 19.72875497 -31.19238534 24.77139742 -43.6875 30.8125 C-44.77716064 31.3386792 -45.86682129 31.8648584 -46.98950195 32.40698242 C-52.86648425 35.3014794 -58.50920185 38.4077668 -64.05004883 41.9050293 C-66 43 -66 43 -68 43 C-68.59661272 38.53203363 -68.81641921 34.45028513 -68 30 C-65.29024093 26.86785642 -61.7391041 25.64934039 -58 24 C-56.82601148 23.35826886 -55.65964517 22.70245751 -54.5 22.03515625 C-15.81880074 0 -15.81880074 0 0 0 Z " fill="#070707" transform="translate(511,362)"/>
<path d="M0 0 C16.7584002 4.83349931 32.84649382 11.21068765 48.5625 18.75 C49.69743896 19.29253418 50.83237793 19.83506836 52.00170898 20.39404297 C63.88157071 26.203323 63.88157071 26.203323 68 30 C68.68359375 33.33203125 68.68359375 33.33203125 68.4375 36.8125 C68.37433594 37.97394531 68.31117188 39.13539063 68.24609375 40.33203125 C68.12427734 41.65267578 68.12427734 41.65267578 68 43 C67.11183594 42.55011719 66.22367187 42.10023438 65.30859375 41.63671875 C61.72627174 39.8283074 58.13258792 38.04330628 54.53662109 36.26220703 C52.83355102 35.41476985 51.1333769 34.5614897 49.43603516 33.70263672 C34.42524135 26.11797214 19.23357171 20.21205371 3.31884766 14.85693359 C1 14 1 14 0 13 C-0.07258946 10.81360547 -0.08373783 8.62499611 -0.0625 6.4375 C-0.05347656 5.23996094 -0.04445313 4.04242188 -0.03515625 2.80859375 C-0.02355469 1.88175781 -0.01195312 0.95492188 0 0 Z " fill="#080808" transform="translate(257,391)"/>
<path d="M0 0 C4.95 0 9.9 0 15 0 C15 17.82 15 35.64 15 54 C10.05 54 5.1 54 0 54 C0 36.18 0 18.36 0 0 Z " fill="#050505" transform="translate(370,631)"/>
<path d="M0 0 C0 4.29 0 8.58 0 13 C-0.97195313 13.37769531 -1.94390625 13.75539063 -2.9453125 14.14453125 C-14.47819815 18.71593365 -25.50975713 24.1068964 -36.55126953 29.75146484 C-40.02379382 31.52200215 -43.51123199 33.26172236 -47 35 C-47.81149299 30.45009061 -48.03532605 26.52824425 -47 22 C-43.40669698 18.11061957 -38.73297111 16.2008514 -34 14 C-32.09733815 13.0618726 -30.19641155 12.12022079 -28.296875 11.17578125 C-5.56088312 0 -5.56088312 0 0 0 Z " fill="#080808" transform="translate(490,399)"/>
<path d="M0 0 C0 4.29 0 8.58 0 13 C-1.75183594 13.6290625 -3.50367188 14.258125 -5.30859375 14.90625 C-22.46382913 21.11835457 -22.46382913 21.11835457 -39.06030273 28.66210938 C-41.92782107 30.09717383 -43.74113517 31 -47 31 C-47.21711618 29.10927993 -47.37173245 27.21131785 -47.5 25.3125 C-47.5928125 24.25675781 -47.685625 23.20101563 -47.78125 22.11328125 C-46.9099579 18.64118224 -46.57853696 18.30590268 -43.73828125 16.421875 C-38.28093978 13.42027681 -32.48546713 11.18512417 -26.6875 8.9375 C-25.09131836 8.30618164 -25.09131836 8.30618164 -23.46289062 7.66210938 C-20.31519154 6.42338704 -17.16040007 5.20592255 -14 4 C-12.96439941 3.60441895 -11.92879883 3.20883789 -10.86181641 2.80126953 C-9.39301025 2.25188721 -9.39301025 2.25188721 -7.89453125 1.69140625 C-7.0228833 1.36470947 -6.15123535 1.0380127 -5.25317383 0.70141602 C-3 0 -3 0 0 0 Z " fill="#080808" transform="translate(511,304)"/>
<path d="M0 0 C8.32722627 2.09743314 16.12231306 4.87013306 24.0625 8.125 C25.18849609 8.58003906 26.31449219 9.03507812 27.47460938 9.50390625 C35.56894841 12.78447421 35.56894841 12.78447421 38 14 C38 18.29 38 22.58 38 27 C34.45382718 26.29076544 31.84033766 25.65575258 28.59375 24.328125 C27.77293945 23.99554688 26.95212891 23.66296875 26.10644531 23.3203125 C25.24631836 22.96710938 24.38619141 22.61390625 23.5 22.25 C21.71381756 21.52536123 19.92735845 20.80140407 18.140625 20.078125 C16.83254883 19.54735352 16.83254883 19.54735352 15.49804688 19.00585938 C10.35792141 16.93614506 5.17810861 14.9726128 0 13 C0 8.71 0 4.42 0 0 Z " fill="#080808" transform="translate(257,304)"/>
<path d="M0 0 C14.19642857 -0.53571429 14.19642857 -0.53571429 17.75 1.8125 C20.91270971 4.88735667 22.29953387 6.94301084 22.375 11.3125 C22.2629904 15.89742634 21.12733088 18.53457929 18 22 C12.24211715 24.99044972 6.33657702 24.12801166 0 24 C0 16.08 0 8.16 0 0 Z " fill="#151615" transform="translate(231,702)"/>
<path d="M0 0 C3.91756053 3.07052041 6.10555791 5.18652646 6.75 10.25 C6.26562015 14.19423593 5.55173809 16.52828414 3.3125 19.8125 C-1.01268976 22.76149302 -4.50712079 23.4600474 -9.6875 22.8125 C-12.74107079 21.19929279 -14.92583566 19.78189098 -17.0625 17.0625 C-18.51149408 11.84612133 -18.38803657 8.16353481 -15.9375 3.4375 C-11.53703827 -1.69637202 -6.39400639 -2.82525864 0 0 Z " fill="#121312" transform="translate(585.6875,703.1875)"/>
<path d="M0 0 C3.70390021 2.02666238 5.65363011 3.48044516 8 7 C8.66535838 11.06919178 8.92277334 15.22543589 6.984375 18.953125 C4.8540259 21.59681123 3.23432752 22.92189083 0 24 C-5.70624783 24.53832527 -8.5555466 23.61757835 -13 20 C-15.8288298 15.7567553 -15.65268001 11.98265471 -15 7 C-11.33070065 0.70977255 -7.11202755 -0.73572699 0 0 Z " fill="#0F0F0F" transform="translate(556,702)"/>
<path d="M0 0 C1.65 0 3.3 0 5 0 C5.64690922 1.6037331 6.29248764 3.20800306 6.9375 4.8125 C7.29714844 5.70582031 7.65679687 6.59914063 8.02734375 7.51953125 C8.73613486 9.3270909 9.3860247 11.15807409 10 13 C10.64690922 11.3962669 11.29248764 9.79199694 11.9375 8.1875 C12.29714844 7.29417969 12.65679687 6.40085937 13.02734375 5.48046875 C13.73613486 3.6729091 14.3860247 1.84192591 15 0 C16.65 0 18.3 0 20 0 C20.67679658 1.725227 21.34102 3.45538939 22 5.1875 C22.37125 6.15042969 22.7425 7.11335937 23.125 8.10546875 C23.97636772 10.92182358 24.17072647 13.08164439 24 16 C24.66 16 25.32 16 26 16 C26.103125 14.845 26.20625 13.69 26.3125 12.5 C26.86035113 7.98828481 28.2774879 4.19394251 30 0 C31.65 0 33.3 0 35 0 C32.86662595 8.06480039 30.49320448 16.03946386 28 24 C26.02 24 24.04 24 22 24 C20.68 19.71 19.36 15.42 18 11 C16.09610151 13.85584773 15.30537823 15.9311762 14.375 19.1875 C14.11460937 20.08855469 13.85421875 20.98960937 13.5859375 21.91796875 C13.39257812 22.60503906 13.19921875 23.29210937 13 24 C11.02 24 9.04 24 7 24 C4.26018069 16.06288986 1.59445693 8.26218593 0 0 Z " fill="#171717" transform="translate(354,702)"/>
<path d="M0 0 C1.65 0 3.3 0 5 0 C5 7.92 5 15.84 5 24 C3.35 24 1.7 24 0 24 C-0.33 20.04 -0.66 16.08 -1 12 C-2.65 14.97 -4.3 17.94 -6 21 C-10 20 -10 20 -11.265625 18.37109375 C-12.17708333 16.58072917 -13.08854167 14.79036458 -14 13 C-14.33 16.63 -14.66 20.26 -15 24 C-16.65 24 -18.3 24 -20 24 C-20 16.41 -20 8.82 -20 1 C-18.35 1 -16.7 1 -15 1 C-12.98046875 3.625 -12.98046875 3.625 -11.1875 7 C-10.58292969 8.11375 -9.97835938 9.2275 -9.35546875 10.375 C-8.90816406 11.24125 -8.46085937 12.1075 -8 13 C-5.5129579 10.01659445 -3.41608862 7.19818673 -1.75 3.6875 C-1.24726563 2.64142578 -1.24726563 2.64142578 -0.734375 1.57421875 C-0.49203125 1.05472656 -0.2496875 0.53523437 0 0 Z " fill="#131313" transform="translate(300,702)"/>
<path d="M0 0 C13.03275333 -0.60900716 13.03275333 -0.60900716 17.375 2.125 C19.28071139 5.49664323 19.64850195 7.19005105 19 11 C18.46375 11.680625 17.9275 12.36125 17.375 13.0625 C16.694375 14.0215625 16.694375 14.0215625 16 15 C16.67518454 17.60470331 16.67518454 17.60470331 18 20 C18.33 20.99 18.66 21.98 19 23 C16.75 23.375 16.75 23.375 14 23 C12.64721885 21.01310269 11.31431695 19.01254782 10 17 C7.37233611 16.03780298 7.37233611 16.03780298 5 16 C5 17.98 5 19.96 5 22 C3.35 22 1.7 22 0 22 C0 14.74 0 7.48 0 0 Z " fill="#0A0B0A" transform="translate(393,703)"/>
<path d="M0 0 C5.75358089 1.15071618 6.37313178 2.0964547 9.8125 6.5625 C10.60269531 7.57441406 11.39289063 8.58632813 12.20703125 9.62890625 C12.79871094 10.41136719 13.39039063 11.19382812 14 12 C14.33 8.37 14.66 4.74 15 1 C16.65 1 18.3 1 20 1 C20 8.26 20 15.52 20 23 C15 23 15 23 12.54296875 20.59375 C11.76566406 19.5728125 10.98835938 18.551875 10.1875 17.5 C9.39730469 16.4790625 8.60710937 15.458125 7.79296875 14.40625 C7.20128906 13.6121875 6.60960937 12.818125 6 12 C5.67 15.96 5.34 19.92 5 24 C3.35 24 1.7 24 0 24 C0 16.08 0 8.16 0 0 Z " fill="#0C0C0C" transform="translate(460,702)"/>
<path d="M0 0 C1.2065625 0.0309375 1.2065625 0.0309375 2.4375 0.0625 C6.22724143 7.94308561 9.93165892 15.66056226 12.4375 24.0625 C10.4575 24.0625 8.4775 24.0625 6.4375 24.0625 C5.9425 21.5875 5.9425 21.5875 5.4375 19.0625 C1.8075 19.0625 -1.8225 19.0625 -5.5625 19.0625 C-5.8925 20.7125 -6.2225 22.3625 -6.5625 24.0625 C-8.5425 24.0625 -10.5225 24.0625 -12.5625 24.0625 C-5.13368644 0.12521186 -5.13368644 0.12521186 0 0 Z " fill="#1A1B1B" transform="translate(215.5625,701.9375)"/>
<path d="M0 0 C1.98 0 3.96 0 6 0 C7.50884213 3.43368594 9.00553401 6.87253549 10.5 10.3125 C10.92925781 11.28896484 11.35851562 12.26542969 11.80078125 13.27148438 C12.40986328 14.67817383 12.40986328 14.67817383 13.03125 16.11328125 C13.40830078 16.97735596 13.78535156 17.84143066 14.17382812 18.73168945 C15 21 15 21 15 24 C13.35 24 11.7 24 10 24 C9.505 21.525 9.505 21.525 9 19 C7.20739868 19.05995322 5.41574205 19.1487241 3.625 19.25 C2.62726563 19.29640625 1.62953125 19.3428125 0.6015625 19.390625 C-2.1526477 19.72160885 -2.1526477 19.72160885 -3.3515625 22.046875 C-3.56554687 22.69140625 -3.77953125 23.3359375 -4 24 C-5.65 24 -7.3 24 -9 24 C-8.40227336 20.56506424 -7.52472216 17.55768504 -6.15234375 14.35546875 C-5.79462891 13.51435547 -5.43691406 12.67324219 -5.06835938 11.80664062 C-4.50858398 10.51016602 -4.50858398 10.51016602 -3.9375 9.1875 C-3.37192383 7.86202148 -3.37192383 7.86202148 -2.79492188 6.50976562 C-1.86751446 4.33798876 -0.93576366 2.16818633 0 0 Z " fill="#191919" transform="translate(164,702)"/>
<path d="M0 0 C5.61 0 11.22 0 17 0 C17 1.65 17 3.3 17 5 C13.04 5 9.08 5 5 5 C5 6.65 5 8.3 5 10 C8.3 10 11.6 10 15 10 C15 11.32 15 12.64 15 14 C11.7 14 8.4 14 5 14 C5 15.65 5 17.3 5 19 C8.96 19 12.92 19 17 19 C17 20.65 17 22.3 17 24 C11.39 24 5.78 24 0 24 C0 16.08 0 8.16 0 0 Z " fill="#191919" transform="translate(258,702)"/>
<path d="M0 0 C3 1.5 3 1.5 5 3 C4.34 4.32 3.68 5.64 3 7 C2.01 6.67 1.02 6.34 0 6 C-4.67015309 5.60461298 -4.67015309 5.60461298 -9 7.0625 C-10.61647822 10.19442656 -9.78665296 12.67185286 -9 16 C-6.23776722 18.76223278 -3.79293383 18.57856291 0 19 C0 16.36 0 13.72 0 11 C1.65 11 3.3 11 5 11 C5.10824843 12.6026782 5.18570645 14.20745748 5.25 15.8125 C5.29640625 16.70582031 5.3428125 17.59914063 5.390625 18.51953125 C5 21 5 21 3.26171875 22.80078125 C-0.46068248 24.77448967 -3.89414026 24.52884061 -8 24 C-11.5544915 22.60911202 -12.71251242 21.43618806 -14.8125 18.25 C-16.53760637 13.52865625 -16.82550674 9.91169981 -14.8125 5.25 C-10.72502122 0.17588842 -6.27203883 -0.98632869 0 0 Z " fill="#161616" transform="translate(501,702)"/>
<path d="M0 0 C3.4375 1.5 3.4375 1.5 6 3 C5.34 4.32 4.68 5.64 4 7 C3.31292969 6.89300781 2.62585938 6.78601563 1.91796875 6.67578125 C1.01691406 6.55589844 0.11585938 6.43601562 -0.8125 6.3125 C-1.70582031 6.18488281 -2.59914062 6.05726563 -3.51953125 5.92578125 C-6.01763186 5.78697847 -6.01763186 5.78697847 -7.84375 7.1875 C-9.3832344 9.60074582 -9.13302737 10.89282829 -8.6875 13.6875 C-8.56761719 14.49574219 -8.44773438 15.30398438 -8.32421875 16.13671875 C-8.21722656 16.75160156 -8.11023438 17.36648438 -8 18 C-7.39671875 18 -6.7934375 18 -6.171875 18 C-2.44791667 18 1.27604167 18 5 18 C5 21 5 21 3.5 22.6875 C0.01069315 24.5193861 -3.18241426 24.54754218 -7 24 C-10.50550868 22.59779653 -11.73256673 21.40576082 -13.8125 18.25 C-15.22286236 14.3900609 -15.64390467 12.0780629 -15 8 C-10.87133195 1.64917423 -7.69279243 -0.51285283 0 0 Z " fill="#141414" transform="translate(196,702)"/>
<path d="M0 0 C2.9375 1.3125 2.9375 1.3125 5 3 C5 3.99 5 4.98 5 6 C4.01 6.33 3.02 6.66 2 7 C1.34 6.67 0.68 6.34 0 6 C-4.13064626 5.62384874 -4.13064626 5.62384874 -7.875 7.125 C-9.52854531 9.88090884 -9.39365568 11.85075452 -9 15 C-8.06402685 17.01951062 -8.06402685 17.01951062 -6 18 C-2.54178598 18.25003964 -2.54178598 18.25003964 1 18 C2.32 18 3.64 18 5 18 C5 19.32 5 20.64 5 22 C1.26330522 24.49112985 -2.66625121 24.54387684 -7 24 C-10.50550868 22.59779653 -11.73256673 21.40576082 -13.8125 18.25 C-15.22286236 14.3900609 -15.64390467 12.0780629 -15 8 C-10.87601347 1.65637545 -7.69102401 -0.52142536 0 0 Z " fill="#121212" transform="translate(336,702)"/>
<path d="M0 0 C3.70390021 2.02666238 5.65363011 3.48044516 8 7 C8 8.32 8 9.64 8 11 C0.41 11 -7.18 11 -15 11 C-14 5 -14 5 -11.5625 2.6875 C-7.41076989 -0.04656617 -5.03321823 -0.41943485 0 0 Z " fill="#F5F5F5" transform="translate(282,641)"/>
<path d="M0 0 C3.67518369 1.34285558 5.52205248 2.36273664 7.875 5.5 C9 8 9 8 9 11 C1.41 11 -6.18 11 -14 11 C-13 5 -13 5 -10.375 2.125 C-6.40982639 -0.37159079 -4.60154135 -0.65736305 0 0 Z " fill="#F6F7F7" transform="translate(620,641)"/>
<path d="M0 0 C6.6 0 13.2 0 20 0 C20 1.65 20 3.3 20 5 C17.69 5 15.38 5 13 5 C13 11.27 13 17.54 13 24 C11.35 24 9.7 24 8 24 C8 17.73 8 11.46 8 5 C5.36 5 2.72 5 0 5 C0 3.35 0 1.7 0 0 Z " fill="#1E1E1E" transform="translate(425,702)"/>
<path d="M0 0 C4.95 0 9.9 0 15 0 C15 4.29 15 8.58 15 13 C10.05 13 5.1 13 0 13 C0 8.71 0 4.42 0 0 Z " fill="#0B0B0C" transform="translate(370,611)"/>
<path d="M0 0 C6.6 0 13.2 0 20 0 C20 1.65 20 3.3 20 5 C17.36 5 14.72 5 12 5 C12 10.94 12 16.88 12 23 C10.35 23 8.7 23 7 23 C7 17.06 7 11.12 7 5 C4.69 5 2.38 5 0 5 C0 3.35 0 1.7 0 0 Z " fill="#1A1A1A" transform="translate(519,702)"/>
<path d="M0 0 C1.9375 1.0625 1.9375 1.0625 3 3 C3.3931463 6.60384106 3.39343329 9.09741776 1.9375 12.4375 C0 14 0 14 -3.5 14.5 C-7 14 -7 14 -8.9375 12.4375 C-10.39343329 9.09741776 -10.3931463 6.60384106 -10 3 C-7.77766882 -1.05248626 -4.20052866 -0.45005664 0 0 Z " fill="#F6F6F6" transform="translate(556,707)"/>
<path d="M0 0 C1.875 1 1.875 1 3 3 C3.53967465 6.59783102 3.68523932 9.78179676 1.875 13 C-0.94519875 14.504106 -2.85610056 14.44912849 -6 14 C-8.375 12.375 -8.375 12.375 -10 10 C-10.61195145 6.3282913 -10.48706506 4.71186432 -8.375 1.625 C-5.32214079 -0.46379841 -3.63031776 -0.54068562 0 0 Z " fill="#F5F5F5" transform="translate(583,707)"/>
<path d="M0 0 C1.65 0 3.3 0 5 0 C5 5.94 5 11.88 5 18 C8.63 18 12.26 18 16 18 C16 19.32 16 20.64 16 22 C10.72 22 5.44 22 0 22 C0 14.74 0 7.48 0 0 Z " fill="#0A0A0A" transform="translate(597,703)"/>
<path d="M0 0 C7.25581395 -0.48372093 7.25581395 -0.48372093 10.5 1.625 C12.45562482 4.72140596 12.60024477 6.39853135 12 10 C10.5 12.375 10.5 12.375 8 14 C5.24150058 14.32638734 2.79515088 14.18634339 0 14 C0 9.38 0 4.76 0 0 Z " fill="#F0F0F0" transform="translate(236,707)"/>
<path d="M0 0 C1.65 0 3.3 0 5 0 C5 7.59 5 15.18 5 23 C3.35 23 1.7 23 0 23 C0 15.41 0 7.82 0 0 Z " fill="#0E0E0E" transform="translate(449,703)"/>
<path d="M0 0 C1.65 0 3.3 0 5 0 C5 7.59 5 15.18 5 23 C3.35 23 1.7 23 0 23 C0 15.41 0 7.82 0 0 Z " fill="#0C0C0C" transform="translate(417,703)"/>
<path d="M0 0 C1.65 0 3.3 0 5 0 C5 7.59 5 15.18 5 23 C3.35 23 1.7 23 0 23 C0 15.41 0 7.82 0 0 Z " fill="#090A09" transform="translate(311,703)"/>
<path d="M0 0 C3.375 -0.125 3.375 -0.125 7 0 C7.66 0.66 8.32 1.32 9 2 C8.75 4.5625 8.75 4.5625 8 7 C5.29120665 8.35439668 2.99066732 8.06501451 0 8 C0 5.36 0 2.72 0 0 Z " fill="#E8E8E8" transform="translate(398,707)"/>
<path d="M0 0 C0.33 0 0.66 0 1 0 C1 17.16 1 34.32 1 52 C0.67 52 0.34 52 0 52 C-0.0154612 51.16434761 -0.0154612 51.16434761 -0.03123474 50.31181335 C-0.1393002 44.52066308 -0.25389827 38.72966839 -0.37231445 32.9387207 C-0.41566313 30.7766444 -0.45733825 28.61453387 -0.49731445 26.45239258 C-0.55501844 23.34706298 -0.61871272 20.24190564 -0.68359375 17.13671875 C-0.70030624 16.16788254 -0.71701874 15.19904633 -0.73423767 14.20085144 C-0.75418289 13.3001442 -0.77412811 12.39943695 -0.79467773 11.47143555 C-0.81022202 10.67867722 -0.8257663 9.88591888 -0.84178162 9.06913757 C-0.93081226 6.80260226 -0.93081226 6.80260226 -2 4 C-1.0625 1.8125 -1.0625 1.8125 0 0 Z " fill="#C8C8C8" transform="translate(370,165)"/>
<path d="M0 0 C2.50037734 2.17424117 3.43628586 3.73045798 4 7 C2.02 7 0.04 7 -2 7 C-1.34 4.69 -0.68 2.38 0 0 Z " fill="#E6E6E6" transform="translate(166,709)"/>
<path d="M0 0 C3 3.625 3 3.625 3 7 C1.35 7 -0.3 7 -2 7 C-1.125 1.125 -1.125 1.125 0 0 Z " fill="#E9E8E8" transform="translate(215,709)"/>
<path d="M0 0 C0.66 0.33 1.32 0.66 2 1 C2 1.99 2 2.98 2 4 C-1.63 4.66 -5.26 5.32 -9 6 C-6.02581978 3.76936483 -3.2753033 1.72384384 0 0 Z " fill="#CDCDCD" transform="translate(468,466)"/>
<path d="M0 0 C1.98 0 3.96 0 6 0 C6 0.66 6 1.32 6 2 C3.5 3.625 3.5 3.625 1 5 C0.67 3.35 0.34 1.7 0 0 Z " fill="#F0F0F0" transform="translate(536,483)"/>
</svg>
